<svg width="24" height="24" viewBox="0 0 24 24" fill="none" xmlns="http://www.w3.org/2000/svg">
<path d="M4.4999 10C4.4999 8.54131 5.07936 7.14236 6.11081 6.11091C7.14226 5.07946 8.54121 4.5 9.9999 4.5C11.4586 4.5 12.8575 5.07946 13.889 6.11091C14.9204 7.14236 15.4999 8.54131 15.4999 10C15.4999 11.4587 14.9204 12.8576 13.889 13.8891C12.8575 14.9205 11.4586 15.5 9.9999 15.5C8.54121 15.5 7.14226 14.9205 6.11081 13.8891C5.07936 12.8576 4.4999 11.4587 4.4999 10ZM9.9999 3C8.88057 3.00009 7.77758 3.26861 6.78346 3.78303C5.78934 4.29745 4.93308 5.04276 4.28649 5.95645C3.63991 6.87015 3.22187 7.92557 3.06744 9.0342C2.913 10.1428 3.02667 11.2723 3.39892 12.3279C3.77117 13.3836 4.39113 14.3345 5.20681 15.101C6.02249 15.8676 7.0101 16.4273 8.08679 16.7333C9.16348 17.0393 10.2979 17.0827 11.3948 16.8597C12.4917 16.6368 13.5191 16.154 14.3909 15.452L19.7199 20.78C19.7886 20.8537 19.8714 20.9128 19.9634 20.9538C20.0554 20.9948 20.1547 21.0168 20.2554 21.0186C20.3561 21.0204 20.4561 21.0018 20.5495 20.9641C20.6429 20.9264 20.7277 20.8703 20.7989 20.799C20.8702 20.7278 20.9263 20.643 20.964 20.5496C21.0017 20.4562 21.0203 20.3562 21.0185 20.2555C21.0167 20.1548 20.9947 20.0555 20.9537 19.9635C20.9127 19.8715 20.8536 19.7887 20.7799 19.72L15.4519 14.391C16.2803 13.3625 16.8008 12.1207 16.9535 10.809C17.1061 9.49727 16.8845 8.16912 16.3144 6.97795C15.7443 5.78677 14.8489 4.78117 13.7315 4.07727C12.6142 3.37338 11.3205 2.99991 9.9999 3Z" fill="black"/>
</svg>
