<svg width="21" height="20" viewBox="0 0 21 20" fill="none" xmlns="http://www.w3.org/2000/svg">
<g clip-path="url(#clip0_18_170)">
<path d="M10.6667 0C5.22444 0 0.666748 3.90769 0.666748 8.84615C0.666748 11.1769 1.71213 13.2677 3.35906 14.8315C3.15881 15.3549 2.87457 15.842 2.51752 16.2738C2.04428 16.8478 1.5215 17.3791 0.95521 17.8615C0.830991 17.9612 0.740766 18.097 0.696986 18.2501C0.653205 18.4032 0.658028 18.5661 0.710788 18.7164C0.763548 18.8666 0.861644 18.9968 0.99154 19.089C1.12143 19.1811 1.27672 19.2306 1.43598 19.2308C3.13982 19.2308 4.36521 19.2115 5.47444 18.9185C6.46675 18.6554 7.31983 18.1046 8.19059 17.3315C8.9829 17.5215 9.80059 17.6923 10.6667 17.6923C16.1091 17.6923 20.6667 13.7846 20.6667 8.84615C20.6667 3.90769 16.1091 0 10.6667 0ZM10.6667 1.53846C15.3783 1.53846 19.1283 4.86154 19.1283 8.84615C19.1283 12.8308 15.3783 16.1538 10.6667 16.1538C9.82906 16.1538 8.95906 16.0092 8.16675 15.7931C8.04005 15.7612 7.90732 15.7622 7.78108 15.7958C7.65484 15.8295 7.53925 15.8947 7.44521 15.9854C6.57983 16.8154 5.94213 17.2023 5.08983 17.4277C4.69752 17.5315 3.94059 17.5069 3.40675 17.5485C3.51444 17.4269 3.61521 17.3623 3.71983 17.2354C4.32444 16.4969 4.87598 15.7162 5.04213 14.8315C5.06502 14.6987 5.05262 14.5623 5.00618 14.4358C4.95974 14.3093 4.88089 14.1972 4.77752 14.1108C3.16598 12.78 2.20521 10.9146 2.20521 8.84615C2.20521 4.86154 5.95521 1.53846 10.6667 1.53846ZM9.20059 4.54308C9.06519 4.57346 8.94053 4.63991 8.83982 4.73538L7.68598 5.81769L8.71982 6.94692L9.6329 6.08154H11.4837L12.2052 6.9V8.03L10.2337 9.35154C10.1283 9.4233 10.0424 9.52013 9.98372 9.63333C9.92504 9.74652 9.89542 9.87252 9.89752 10V11.5385H11.436V10.4323L13.4075 9.11077C13.513 9.03893 13.599 8.94198 13.6577 8.82864C13.7163 8.71531 13.7459 8.58915 13.7437 8.46154V6.61077C13.7427 6.42485 13.6743 6.24559 13.5514 6.10615L12.3975 4.80769C12.3257 4.72508 12.2371 4.65874 12.1376 4.61311C12.0381 4.56747 11.93 4.5436 11.8206 4.54308H9.36829C9.31256 4.53697 9.25632 4.53697 9.20059 4.54308ZM9.89752 12.3077V13.8462H11.436V12.3077H9.89752Z" fill="black"/>
</g>
<defs>
<clipPath id="clip0_18_170">
<rect width="20" height="20" fill="white" transform="translate(0.666748)"/>
</clipPath>
</defs>
</svg>
