<svg width="20" height="20" viewBox="0 0 20 20" fill="none" xmlns="http://www.w3.org/2000/svg">
<path d="M9.12134 2.5L8.92571 2.67563L2.05071 9.55062L1.62134 10L2.05071 10.4494L7.67571 16.0744L8.12509 16.5037L8.57446 16.0744L15.4495 9.19938L15.6251 9.00375V2.5H9.12134ZM9.64884 3.75H14.3751V8.47687L8.12509 14.7269L3.39821 10L9.64884 3.75ZM16.2501 4.375V5.625H16.8751V10.7225L10.9376 16.6213L10.1563 15.84L9.27759 16.7188L10.4882 17.9494L10.9376 18.3787L11.3676 17.9494L17.9488 11.445L18.1251 11.25V4.375H16.2501ZM12.5001 5C12.1563 5 11.8751 5.28125 11.8751 5.625C11.8751 5.96875 12.1563 6.25 12.5001 6.25C12.8438 6.25 13.1251 5.96875 13.1251 5.625C13.1251 5.28125 12.8438 5 12.5001 5Z" fill="black"/>
</svg>
