<svg width="69" height="69" viewBox="0 0 69 69" fill="none" xmlns="http://www.w3.org/2000/svg">
<path d="M26.9376 7.15701C26.105 8.47401 23.1794 13.6856 23.4784 15.5821C23.8487 17.9414 31.0132 27.8378 32.6439 29.6591L30.7096 34.7803C29.6079 33.5423 28.4878 32.3232 27.4643 30.9196L23.5796 32.4963C16.1851 20.8915 18.3885 16.4062 24.2558 7.2285V7.14195C24.6905 7.14195 24.9573 6.34046 25.0079 6.32164C25.783 6.05072 26.2706 6.32917 26.9422 7.15324L26.9376 7.15701Z" fill="#422B21"/>
<path d="M17.9975 41.7755C17.1465 40.6918 14.9684 38.9609 16.0057 37.6138C5.61429 25.5763 -3.92611 -1.48258 16.9096 4.23324C18.5564 4.68478 23.1886 7.14571 24.2512 7.14571V7.23226C18.3862 16.4099 16.1851 20.8953 23.5773 32.5L27.462 30.9234C28.4855 32.3269 29.6079 33.5461 30.7073 34.7841L32.6416 29.6628C31.0109 27.8416 23.8487 17.9414 23.4761 15.5859C23.1771 13.6894 26.1027 8.47777 26.9353 7.16076C27.2297 6.69417 27.5494 6.29906 27.8553 5.8588C28.313 5.19654 29.7988 3.85319 29.9414 3.5785C30.2197 3.02535 30.1507 1.88896 30.1806 1.8137C30.2243 1.70834 30.3899 1.93788 30.3968 1.92659C32.0873 1.35463 33.6904 0.507983 35.4821 0.395097C47.2052 -0.342428 55.9705 17.7646 53.6866 34.0579C57.0078 38.784 60.5429 44.6127 62.6681 50.686C65.7501 59.4837 65.1912 67.0847 58.4568 68.4205C49.2453 70.2493 34.1044 59.1074 26.013 50.8027C23.2599 47.9768 20.7805 44.4096 17.9952 41.7831L17.9975 41.7755Z" fill="#F1C071"/>
<path d="M17.9975 41.7768C20.7828 44.407 23.2622 47.9705 26.0153 50.7964C34.1067 59.1011 49.2476 70.243 58.4591 68.4142C65.1935 67.0784 65.7524 59.4774 62.6704 50.6798C60.5429 44.6102 57.0078 38.7815 53.6889 34.0516C55.9728 17.7621 47.2075 -0.344943 35.4821 0.392583C33.6904 0.505469 32.0873 1.34836 30.3968 1.92408C31.3927 0.430211 35.8639 -0.153036 37.4003 0.0351085C48.507 1.38975 56.0901 18.62 53.9741 33.965C61.571 43.4061 72.6455 69.0464 56.2028 69.0012C44.0427 68.9674 27.6575 54.0852 17.9952 41.7768H17.9975Z" fill="#201A10"/>
<path d="M56.2856 43.7435C57.0676 43.6231 57.5874 51.3182 57.5621 52.2777C57.1849 66.5579 44.7557 59.732 38.8286 55.845C38.1156 55.3784 33.1315 51.9316 32.9245 51.5365C32.7681 51.2354 32.9038 50.8479 33.1637 50.8591C33.4811 50.8704 36.2618 52.7556 37.0024 53.0378C40.2017 54.2533 49.5719 57.2711 52.3802 56.0745C55.4967 54.75 55.7819 50.9796 56.1637 46.4415C56.2051 45.9486 55.8095 43.8225 56.281 43.7473L56.2856 43.7435Z" fill="#F7EAB2"/>
<path d="M61.9045 52.8535C62.3484 52.8234 63.6663 60.5486 63.5651 61.3877C62.7279 68.3264 53.5578 67.0471 49.9192 65.7752C42.8996 63.3256 38.1524 58.8854 31.8711 53.7942C31.326 53.3502 30.7855 52.8046 30.3577 52.0934C31.4272 51.6155 32.4829 53.433 33.2143 53.9748C38.456 57.8769 49.6087 65.7489 55.0022 65.508C56.0648 65.4591 59.3538 61.9747 59.9656 60.6953C60.4095 59.7659 61.6285 55.8149 61.8332 54.6785C61.8884 54.3699 61.5158 52.8723 61.9045 52.8459V52.8535Z" fill="#F7EAB2"/>
<path d="M45.4664 6.205C46.9568 7.03283 50.3769 13.2604 51.1336 15.5369C51.7086 17.2679 53.8729 29.7155 52.9414 30.1821C50.9772 29.3768 51.8765 28.1501 51.5959 26.3778C50.9565 22.3628 49.0107 11.9547 47.0511 8.96695C46.9499 8.81267 44.6177 6.51732 45.0593 6.08835C45.1812 6.19371 45.4273 6.17866 45.4664 6.20123V6.205Z" fill="#F7EAB2"/>
<path d="M5.0577 6.41947C2.1551 13.5652 6.0214 22.0016 8.8504 27.5067C9.9107 29.5198 11.0446 31.4314 12.2038 33.2978C12.3096 33.5198 12.3924 33.7719 12.3027 33.9412C12.2659 33.9826 12.1417 33.8697 11.9807 33.674C10.8169 31.8001 9.6784 29.8773 8.6089 27.8491C5.6741 22.1559 1.7825 13.5276 4.7932 6.12221C4.9151 5.84752 5.175 6.12973 5.0554 6.41947H5.0577Z" fill="#211A11"/>
<path d="M27.5333 39.6269C25.7439 37.6815 24.2052 35.3184 22.7217 32.9591C21.1968 30.4906 19.7363 27.9281 18.7634 24.6996C16.9924 18.8031 19.0049 14.0318 21.4843 9.87004C22.2111 8.62829 22.9563 7.45051 23.7015 6.28402L23.4554 7.28494V7.1984L24.2558 8.45144C23.2392 8.33855 22.3905 7.87948 21.4337 7.4919C20.5344 7.14195 18.446 6.10716 17.5743 5.7986C14.3313 4.70737 6.45379 2.90118 5.44639 9.82113C5.10829 12.3385 5.63959 15.1042 6.28129 17.4786C8.52149 25.1737 12.3395 31.612 16.5232 36.6053L16.6934 36.8349C17.4846 37.9713 16.5048 39.9167 15.6699 38.8443C12.8938 35.5781 9.90609 31.0476 7.70729 26.2612C5.18189 20.8351 1.44899 10.5699 5.55219 4.87293C8.77679 0.63969 15.5365 2.14861 19.2602 3.81556C20.148 4.2069 22.2502 5.1702 23.115 5.50134C23.4623 5.62551 23.9361 5.81366 24.2489 5.84C24.6767 5.84376 25.0332 6.40443 25.0493 7.0968C25.0723 7.51072 24.978 7.91335 24.8055 8.18051C24.0672 9.33948 23.3335 10.4947 22.6389 11.6838C21.1071 14.3817 19.2809 17.5689 19.7731 21.5011C20.3435 25.3317 22.1743 28.327 23.8418 31.0927C25.3 33.4144 26.7812 35.6684 28.4188 37.4482C29.1318 38.419 31.2018 40.1801 32.1195 41.6213C32.3104 41.9599 32.5588 42.3023 32.4668 42.705C32.4231 42.7501 32.2621 42.7163 32.0367 42.6372C30.3807 42.0389 28.9064 41.0794 27.5333 39.6269Z" fill="#DDB74A"/>
<path d="M23.4945 10.965L22.2019 14.2651" stroke="#4E3C18" stroke-width="1.39" stroke-linecap="round" stroke-linejoin="round"/>
<path d="M27.3171 18.8934C27.3102 18.6865 27.2987 18.7467 27.3654 18.9838C27.4252 19.2208 27.5517 19.6122 27.7541 20.0675C29.4469 23.8303 32.0137 26.6186 34.3919 29.2075C37.7476 32.8048 41.4782 35.8227 45.3353 36.7709C48.6818 38.3137 52.1272 39.4162 55.5749 40.15C56.7042 38.0954 57.5897 35.7775 58.3878 33.373C59.179 30.9874 59.8759 28.5189 60.6395 26.1107C59.8483 31.5405 57.523 35.7436 55.867 40.4623C55.8325 40.5639 56.005 41.1471 55.9682 41.245C54.7538 44.6767 53.3508 47.9467 52.2951 51.5289C49.565 52.6352 46.7268 52.9287 43.9231 52.5713C37.8212 51.0736 32.4001 46.434 27.4988 40.8574C23.9798 36.9402 20.2216 31.9205 18.4092 25.3242C18.009 23.804 17.664 21.9941 17.5766 19.8643C18.2045 17.7608 19.3361 14.2162 19.9341 12.5003C21.4383 8.02247 21.8224 6.86726 24.081 10.1974C24.2397 10.4382 26.5604 15.1268 26.6455 15.4316C26.9836 16.6169 26.4822 16.5567 25.9854 16.7072C26.4293 17.4184 26.8893 18.1785 27.3171 18.8897V18.8934Z" fill="#9E2E2C"/>
<path d="M24.886 8.11278L23.8303 10.7393" stroke="#3F2F1A" stroke-width="1.39" stroke-linecap="round" stroke-linejoin="round"/>
<path d="M28.4418 6.93499C27.7334 7.87195 27.1331 8.82396 26.5374 9.94907C25.7232 11.4843 24.6445 13.5577 24.334 15.2284C24.8193 16.568 25.622 17.7683 26.312 18.9123C27.6069 20.9668 28.9777 22.9498 30.3692 24.8727C31.9424 26.9912 33.5064 29.3166 35.4223 30.5095L34.7116 33.1435C33.5041 32.3608 32.4047 31.2508 31.4065 29.9563C28.8397 26.6299 26.3695 23.1794 24.0879 19.3186C22.8827 17.1174 22.011 15.838 23.0506 12.8277C24.0511 10.0394 25.3253 7.64242 26.7674 5.48628C27.4873 4.49288 28.2739 3.39036 29.0789 2.67541C29.6608 2.16366 30.3209 1.76856 30.9327 1.35464C30.6935 1.68953 30.6981 2.19 30.8315 2.64154C30.9557 3.10438 31.1673 3.58603 31.2248 4.06768C30.2312 4.85788 29.3066 5.82118 28.4441 6.93876L28.4418 6.93499Z" fill="#E0B94B"/>
<path d="M6.56419 24.4324C6.65159 24.3534 6.72749 24.4362 6.85169 24.4174L6.56419 24.4324Z" fill="#D35A50"/>
<path d="M8.63649 25.9677C8.57439 26.0542 8.32829 26.7202 8.06149 26.5998L8.63649 25.9677Z" fill="#D35A50"/>
<path d="M62.9349 36.7935C62.6543 36.7897 62.4496 36.4623 62.4818 36.0973C62.5393 35.4163 62.4887 34.7277 62.491 34.0503C62.5025 30.946 62.4818 27.8378 62.491 24.7334C62.491 24.6845 62.5416 24.6394 62.6267 24.6243C63.1787 24.5265 61.893 24.026 61.8286 24.5227H62.1598V36.1801C62.1598 36.5188 61.9551 36.7935 61.6998 36.7972C61.3318 36.8048 60.8511 36.8085 60.5038 36.7897C60.2554 36.7747 60.0622 36.5037 60.0622 36.1726V19.0176C60.0622 18.679 60.2692 18.4043 60.5245 18.4005L68.2709 18.3215C68.5262 18.3215 68.7355 18.5886 68.7401 18.9235L69 36.135C69.0046 36.4586 68.8206 36.7333 68.5768 36.7596C67.827 36.8386 66.3021 36.7897 65.4741 36.7671C65.2257 36.7596 65.021 36.5 65.0141 36.1688C64.9336 32.5452 65.2901 28.8839 64.8117 25.2866C64.8117 25.2791 64.8071 25.2715 64.8002 25.264C64.6162 25.1022 63.9584 24.9968 64.0918 25.185C64.5794 25.2866 64.5081 25.4672 64.699 25.6817V36.1613C64.699 36.4924 64.5012 36.7634 64.2528 36.7784C63.8802 36.801 63.3489 36.7972 62.9349 36.7897V36.7935Z" fill="#D35A50"/>
<path d="M62.491 34.0466C62.4887 34.9572 62.5784 35.8791 62.3806 36.786C62.307 36.786 62.2334 36.786 62.1598 36.786V34.0466H62.491Z" fill="#D35A50"/>
<path d="M62.491 34.0466H62.1598V24.519H61.8286C61.893 24.0223 63.1787 24.5265 62.6267 24.6206C62.5416 24.6356 62.491 24.6808 62.491 24.7297C62.4841 27.8341 62.5025 30.9422 62.491 34.0466Z" fill="#D35A50"/>
<path d="M48.1321 20.0599C43.1986 18.6714 36.6022 19.7514 34.6564 22.5961C33.7847 23.8717 33.7617 31.3599 34.6564 32.6204C36.685 35.4802 43.7069 36.4172 48.4633 34.8067C50.9197 33.9751 52.3319 32.865 52.5504 31.311C52.5918 31.0212 52.6608 29.0457 52.5504 28.0937C52.5159 27.7964 52.3158 27.5819 52.0881 27.5819L43.1388 27.6384C42.941 27.6384 42.7662 27.4766 42.6972 27.232C42.6029 26.8933 42.5224 26.4719 42.665 26.4192H54.6181C54.855 26.4192 55.0528 26.6563 55.0804 26.9686C55.3817 30.2724 56.0809 33.4746 50.3976 35.6872C43.3251 38.4379 32.246 36.2366 31.4548 31.4615C31.0132 28.7936 30.7326 22.8633 33.6628 20.7373C39.399 16.5793 52.2882 17.6291 54.6158 22.3929C54.809 22.7918 54.579 23.3148 54.2225 23.3261C53.6843 23.3374 53.0426 23.3637 52.9368 23.3299C52.8701 23.3073 52.6539 22.6639 52.5504 22.5434C51.5775 21.4296 50.1745 20.6432 48.1321 20.0675V20.0599Z" fill="#D35A50"/>
<path d="M48.3529 20.233C49.8019 20.6658 51.037 21.3995 51.8535 22.2123C52.2146 22.5735 52.026 23.3299 51.5729 23.3261C51.4073 23.3261 51.2509 23.3261 51.1244 23.3224C50.9772 23.3224 50.8507 23.2132 50.761 23.059C48.8612 19.7288 39.0172 19.5745 36.754 22.8859C36.0548 23.9094 36.0249 31.3373 36.754 32.3269C38.4951 34.6863 45.0685 35.198 48.5162 33.5198C50.968 32.3269 50.5862 30.8669 50.554 29.2978C50.5471 28.9704 50.3539 28.7108 50.1078 28.6958C48.7324 28.613 44.6821 28.7785 43.9346 28.6845C43.3849 28.6167 43.0928 28.0786 42.941 27.8115L51.704 27.755C51.9524 27.755 52.1571 28.0109 52.1709 28.3383C52.21 29.343 52.3618 30.3778 52.2192 31.3636C52.0168 32.7521 50.5149 34.0089 48.2425 34.7427C43.0146 36.4285 35.1486 34.8706 34.4356 31.5066C34.1182 30.0015 34.1527 23.6798 35.098 22.4719C37.1864 19.8078 43.6793 18.8295 48.3529 20.2293V20.233Z" fill="#D35A50"/>
<path d="M49.6892 22.2161C50.0825 22.5359 49.9123 23.3412 49.45 23.3562C48.9026 23.375 48.3575 23.3901 48.3 23.3826C48.1781 23.3675 47.2213 22.5999 46.644 22.3929C43.9277 21.4146 39.5577 21.9752 39.0793 23.8191C38.8562 24.6732 38.9114 31.2244 39.3001 31.8039C39.7164 32.421 41.6001 33.0381 42.78 33.1134C45.5147 33.294 47.5525 32.3307 48.1022 31.0551C48.2655 30.675 48.0907 30.1971 47.7664 30.1332C47.7503 30.1332 47.7365 30.1256 47.7204 30.1256C47.15 30.0128 47.2098 28.9027 47.7871 28.8989L49.7513 28.8914C50.0066 28.8914 50.209 29.1624 50.2182 29.501C50.2527 30.8255 50.6345 32.0259 48.7991 33.1435C45.5101 35.1491 38.3778 34.5922 36.8713 32.0372C36.2963 31.0626 36.2894 24.4061 36.7609 23.3525C38.1662 20.2142 46.6716 19.7702 49.6938 22.2161H49.6892Z" fill="#D35A50"/>
<path d="M50.8944 23.3224C50.784 23.3224 50.6736 23.3224 50.5632 23.3224C49.0084 19.6949 38.3479 19.8041 36.7563 23.3525C36.2848 24.4061 36.2917 31.0626 36.8667 32.0372C38.3732 34.5922 45.5055 35.1491 48.7945 33.1435C50.6299 32.0259 50.2481 30.8255 50.2136 29.501C50.2044 29.1624 50.002 28.8914 49.7467 28.8914L44.045 28.9178C44.0128 28.8952 43.6931 28.9893 43.9346 28.6845C44.6821 28.7785 48.7324 28.6167 50.1078 28.6958C50.3539 28.7108 50.5471 28.9704 50.554 29.2978C50.5862 30.8669 50.968 32.3269 48.5162 33.5198C45.0685 35.198 38.4951 34.6863 36.754 32.3269C36.0249 31.3373 36.0548 23.9094 36.754 22.8859C39.0747 19.4917 49.3718 19.7401 50.8921 23.3224H50.8944Z" fill="#D35A50"/>
<path d="M48.1321 20.0599L48.3529 20.233C43.6793 18.837 37.1887 19.8116 35.098 22.4757C34.1527 23.6798 34.1159 30.0015 34.4356 31.5104C35.1463 34.8744 43.0146 36.4322 48.2425 34.7465L48.4633 34.8029C43.7069 36.4134 36.685 35.4802 34.6564 32.6167C33.7617 31.3561 33.7847 23.868 34.6564 22.5924C36.6022 19.7476 43.1963 18.6677 48.1321 20.0562V20.0599Z" fill="#D35A50"/>
<path d="M52.5504 31.3072L52.2192 31.3636C52.3618 30.3778 52.21 29.343 52.1709 28.3383C52.1571 28.0109 51.9547 27.7513 51.704 27.755L42.941 27.8115C42.9065 27.7513 42.8651 27.7212 42.8306 27.6384L52.0858 27.5819C52.3135 27.5819 52.5136 27.7927 52.5481 28.0937C52.6608 29.0457 52.5895 31.0212 52.5481 31.311L52.5504 31.3072Z" fill="#D35A50"/>
<path d="M42.5546 30.0843C43.8771 30.0429 44.2359 31.1303 43.1066 31.3072C41.2367 31.6007 41.0251 30.1332 42.5546 30.0843Z" fill="#D35A50"/>
<path d="M42.9962 23.3826C44.5441 23.2019 45.011 24.391 43.769 24.5491C42.0371 24.7673 41.8485 23.518 42.9962 23.3826Z" fill="#D35A50"/>
<path d="M48.4633 34.8029L48.2425 34.7465C50.5149 34.0127 52.0168 32.7559 52.2192 31.3674L52.5504 31.311C52.3319 32.865 50.9197 33.9751 48.4633 34.8067V34.8029Z" fill="#D35A50"/>
<path d="M0.0874 19.774L4.3194 19.8041L7.9741 29.2226L11.6886 19.8041L16.1207 19.8567L16.0356 36.9515L12.4936 36.8687L12.5235 27.2884L9.3564 36.9515L6.7367 36.8687L3.7145 28.041L3.6271 36.9252L0 36.8687L0.0874 19.774Z" fill="#D35A50"/>
<path d="M1.29489 20.8501L3.79959 20.9292C4.01119 22.0016 4.57699 22.9686 4.95189 23.9884C5.80979 26.3289 6.42619 29.5687 7.48419 31.7173C7.63369 32.0184 7.96949 32.3608 8.37659 32.1727C8.61349 32.0635 9.71519 28.0335 9.90149 27.4766C10.6513 25.2565 11.477 22.995 12.3487 20.8464L14.8534 20.9254L14.8235 35.7662L13.8161 35.7399L13.846 23.153L13.9334 35.5781H14.7384L14.651 21.0044L12.3763 21.0834C10.856 24.5904 10.0303 28.3308 8.63419 31.8716C8.58589 31.9958 8.69629 32.0748 8.69169 32.0861C8.53989 32.4436 7.64749 32.3909 7.36689 32.1388L3.68229 21.0834H1.32479V35.5743H2.12979L2.07229 23.2283L2.27469 23.1493L2.30459 35.6834C2.22409 35.928 1.44439 35.7963 1.20979 35.7361L1.29719 20.8426L1.29489 20.8501Z" fill="#D35A50"/>
<path d="M2.9072 21.9226L7.1668 34.3739L9.039 34.2949C10.1246 30.1407 11.6012 26.0994 12.8961 22.0053L13.1261 21.9527L9.0666 34.5395H7.0518L2.9072 21.9226Z" fill="#D35A50"/>
<path d="M23.3772 29.9187H22.1674V20.1766L20.93 20.1502L20.9001 29.9187C20.6333 29.9112 20.0721 29.9676 19.8628 29.9187V19.0515L23.2875 19.0251C23.5083 22.6526 23.2875 26.2913 23.3749 29.9225L23.3772 29.9187Z" fill="#D35A50"/>
<path d="M28.3843 32.3871L27.347 32.3608V19.774C27.5586 19.774 28.2716 19.5971 28.3843 19.853C28.2003 23.9771 28.6304 28.2856 28.3843 32.3871Z" fill="#D35A50"/>
<path d="M23.6072 32.2291C23.9131 33.0381 24.6146 33.5649 25.277 34.1068C25.2241 34.1482 25.1689 34.2272 25.1045 34.2686C24.9941 34.3363 24.8124 34.3551 24.7595 34.4831C24.6031 34.4643 24.4306 34.5847 24.242 34.5922C23.3795 34.6148 22.5193 34.7201 21.7672 34.1896C22.6642 33.7644 23.0713 32.9591 23.6095 32.2291H23.6072Z" fill="#D35A50"/>
<path d="M22.0524 29.9187C21.7074 29.9187 21.3601 29.9262 21.0151 29.9187L21.1025 20.2594L22.0524 20.3384V29.9187Z" fill="#D35A50"/>
<path d="M22.1674 29.9187H22.0524V20.3384L21.1025 20.2594L21.0151 29.9187C20.976 29.9187 20.9369 29.9187 20.9001 29.9187L20.93 20.1502L22.1674 20.1766V29.9187Z" fill="#D35A50"/>
<path d="M19.8651 29.9187C20.0744 29.9676 20.6356 29.9112 20.9024 29.9187C20.9415 29.9187 20.9806 29.9187 21.0174 29.9187C21.3624 29.9262 21.7097 29.9187 22.0547 29.9187H23.3795C23.4002 30.7766 23.2852 31.3674 23.6095 32.2253C23.0713 32.9516 22.6642 33.7606 21.7672 34.1858C22.5193 34.7164 23.3795 34.611 24.242 34.5884L26.5167 35.77C26.8801 35.5404 26.6731 35.3071 26.4017 35.1265C26.3281 35.0776 24.8492 34.4906 24.7618 34.4831C24.8147 34.3551 24.9964 34.3363 25.1068 34.2686L26.8042 34.912C26.5512 34.4605 25.7945 34.3627 25.3943 34.0541C25.9762 33.516 26.1648 32.8312 26.2591 32.0936V19.8567C26.3097 19.6987 27.1101 19.7777 27.3539 19.7777V32.3646L28.3912 32.3909C27.9933 39.0023 19.4281 37.9186 19.0647 32.0974V18.3027C19.8053 18.408 22.8114 18.0769 23.2967 18.2763C23.4278 18.329 23.4278 18.8107 23.2967 18.8671C22.7815 19.0816 20.4056 18.6451 19.6972 18.9461V29.8961C19.7271 29.9488 19.8214 29.9112 19.8697 29.9225L19.8651 29.9187Z" fill="#D35A50"/>
<path d="M25.1045 34.2686C25.1689 34.2272 25.2241 34.1482 25.277 34.1068C25.2908 34.0955 25.3828 34.0616 25.392 34.0541C25.7945 34.3627 26.5489 34.4605 26.8019 34.912L25.1045 34.2686Z" fill="#D35A50"/>
<path d="M21.1876 32.3871C21.2635 32.4662 21.3946 32.7371 21.5901 32.6806C21.482 32.5489 21.3233 32.4812 21.1876 32.3871C21.0657 32.2592 20.9392 32.1313 20.8426 31.9845C21.7304 31.6459 23.7245 33.9901 21.6476 32.7898C21.7396 32.9252 22.4687 33.5085 21.965 33.516C21.4958 33.5198 20.5022 32.3006 20.0353 32.0673C19.8352 31.8491 19.4028 31.5706 19.4879 31.3147C19.6788 31.1905 20.9254 32.2065 21.1853 32.3871H21.1876Z" fill="#D35A50"/>
<path d="M20.0376 32.0673C20.1572 32.199 22.4917 34.3928 21.1025 33.8923C20.8219 33.7907 19.2763 32.2366 19.2878 32.041C19.3959 31.7475 19.8237 31.9619 20.0353 32.0673H20.0376Z" fill="#D35A50"/>
<path d="M24.7572 34.4831C24.8446 34.4944 26.3258 35.0776 26.3971 35.1265C26.6685 35.3071 26.8755 35.5404 26.5121 35.77L24.2374 34.5884C24.426 34.5847 24.5985 34.4643 24.7549 34.4793L24.7572 34.4831Z" fill="#D35A50"/>
<path d="M20.5252 30.5095C20.8955 30.4192 22.8275 31.6421 22.5699 31.9318C22.3974 32.1275 21.1807 31.3072 20.9875 31.1529C20.9024 31.0852 20.2331 30.6073 20.5275 30.5095H20.5252Z" fill="#D35A50"/>
<path d="M23.7498 34.8029L25.7945 35.9581C25.4242 36.3043 23.4416 34.976 23.7498 34.8029Z" fill="#D35A50"/>
<path d="M21.16 30.295C21.4705 30.295 23.0391 31.1416 22.9172 31.3937C22.6297 31.7136 21.1301 30.5358 21.1025 30.4003C21.0887 30.3288 21.1163 30.3326 21.16 30.2912V30.295Z" fill="#D35A50"/>
<path d="M19.4327 32.7107C19.6144 32.643 20.8173 33.7154 20.6425 33.945C20.3987 34.2611 18.9865 32.8801 19.4327 32.7107Z" fill="#D35A50"/>
<path d="M19.7202 30.5621C19.9571 30.5057 20.9599 31.5254 21.1876 31.7173C21.2152 32.0071 18.9313 30.7578 19.7202 30.5621Z" fill="#D35A50"/>
<path d="M21.1876 32.3871C21.3256 32.4812 21.4843 32.5489 21.5901 32.6806C21.3946 32.7333 21.2635 32.4662 21.1876 32.3871Z" fill="#D35A50"/>
</svg>
